<?xml version="1.0" encoding="UTF-8" standalone="no"?><svg xmlns="http://www.w3.org/2000/svg" xmlns:xlink="http://www.w3.org/1999/xlink" contentScriptType="application/ecmascript" contentStyleType="text/css" height="687px" preserveAspectRatio="none" style="width:391px;height:687px;background:#FFFFFF;" version="1.1" viewBox="0 0 391 687" width="391.5px" zoomAndPan="magnify"><defs><filter height="300%" id="fevapjanmcwax" width="300%" x="-1" y="-1"><feGaussianBlur result="blurOut" stdDeviation="3.0"/><feColorMatrix in="blurOut" result="blurOut2" type="matrix" values="0 0 0 0 0 0 0 0 0 0 0 0 0 0 0 0 0 0 .4 0"/><feOffset dx="6.0" dy="6.0" in="blurOut2" result="blurOut3"/><feBlend in="SourceGraphic" in2="blurOut3" mode="normal"/></filter></defs><g><line style="stroke:#A80036;stroke-width:1.5;stroke-dasharray:5.0,5.0;" x1="27" x2="27" y1="64.6802" y2="618.6277"/><line style="stroke:#A80036;stroke-width:1.5;stroke-dasharray:5.0,5.0;" x1="187.5" x2="187.5" y1="64.6802" y2="618.6277"/><line style="stroke:#A80036;stroke-width:1.5;stroke-dasharray:5.0,5.0;" x1="244.5" x2="244.5" y1="64.6802" y2="618.6277"/><line style="stroke:#A80036;stroke-width:1.5;stroke-dasharray:5.0,5.0;" x1="328.5" x2="328.5" y1="64.6802" y2="618.6277"/><rect fill="#FEFECE" filter="url(#fevapjanmcwax)" height="49.6802" style="stroke:#A80036;stroke-width:2.25;" width="34.5" x="7.5" y="7.5"/><text fill="#000000" font-family="sans-serif" font-size="21" lengthAdjust="spacing" textLength="13.5" x="18" y="42.0659">A</text><rect fill="#FEFECE" filter="url(#fevapjanmcwax)" height="49.6802" style="stroke:#A80036;stroke-width:2.25;" width="34.5" x="7.5" y="617.1277"/><text fill="#000000" font-family="sans-serif" font-size="21" lengthAdjust="spacing" textLength="13.5" x="18" y="651.6936">A</text><rect fill="#FEFECE" filter="url(#fevapjanmcwax)" height="49.6802" style="stroke:#A80036;stroke-width:2.25;" width="34.5" x="168" y="7.5"/><text fill="#000000" font-family="sans-serif" font-size="21" lengthAdjust="spacing" textLength="13.5" x="178.5" y="42.0659">B</text><rect fill="#FEFECE" filter="url(#fevapjanmcwax)" height="49.6802" style="stroke:#A80036;stroke-width:2.25;" width="34.5" x="168" y="617.1277"/><text fill="#000000" font-family="sans-serif" font-size="21" lengthAdjust="spacing" textLength="13.5" x="178.5" y="651.6936">B</text><rect fill="#FEFECE" filter="url(#fevapjanmcwax)" height="49.6802" style="stroke:#A80036;stroke-width:2.25;" width="36" x="223.5" y="7.5"/><text fill="#000000" font-family="sans-serif" font-size="21" lengthAdjust="spacing" textLength="15" x="234" y="42.0659">C</text><rect fill="#FEFECE" filter="url(#fevapjanmcwax)" height="49.6802" style="stroke:#A80036;stroke-width:2.25;" width="36" x="223.5" y="617.1277"/><text fill="#000000" font-family="sans-serif" font-size="21" lengthAdjust="spacing" textLength="15" x="234" y="651.6936">C</text><rect fill="#FEFECE" filter="url(#fevapjanmcwax)" height="49.6802" style="stroke:#A80036;stroke-width:2.25;" width="90" x="280.5" y="7.5"/><text fill="#000000" font-family="sans-serif" font-size="21" lengthAdjust="spacing" textLength="69" x="291" y="42.0659">Central</text><rect fill="#FEFECE" filter="url(#fevapjanmcwax)" height="49.6802" style="stroke:#A80036;stroke-width:2.25;" width="90" x="280.5" y="617.1277"/><text fill="#000000" font-family="sans-serif" font-size="21" lengthAdjust="spacing" textLength="69" x="291" y="651.6936">Central</text><polygon fill="#A80036" points="44.25,109.3118,29.25,115.3118,44.25,121.3118,38.25,115.3118" style="stroke:#A80036;stroke-width:1.5;"/><line style="stroke:#A80036;stroke-width:1.5;" x1="35.25" x2="186.75" y1="115.3118" y2="115.3118"/><text fill="#000000" font-family="sans-serif" font-size="19.5" lengthAdjust="spacing" textLength="121.5" x="53.25" y="108.0271">send proposal</text><polygon fill="#A80036" points="170.25,156.9434,185.25,162.9434,170.25,168.9434,176.25,162.9434" style="stroke:#A80036;stroke-width:1.5;"/><line style="stroke:#A80036;stroke-width:1.5;" x1="27.75" x2="179.25" y1="162.9434" y2="162.9434"/><text fill="#000000" font-family="sans-serif" font-size="19.5" lengthAdjust="spacing" textLength="64.5" x="38.25" y="155.6587">prepare</text><polygon fill="#A80036" points="44.25,204.575,29.25,210.575,44.25,216.575,38.25,210.575" style="stroke:#A80036;stroke-width:1.5;"/><line style="stroke:#A80036;stroke-width:1.5;stroke-dasharray:2.0,2.0;" x1="35.25" x2="186.75" y1="210.575" y2="210.575"/><text fill="#000000" font-family="sans-serif" font-size="19.5" lengthAdjust="spacing" textLength="91.5" x="53.25" y="203.2903">prepare ok</text><polygon fill="#A80036" points="226.5,252.2065,241.5,258.2065,226.5,264.2065,232.5,258.2065" style="stroke:#A80036;stroke-width:1.5;"/><line style="stroke:#A80036;stroke-width:1.5;" x1="27.75" x2="235.5" y1="258.2065" y2="258.2065"/><text fill="#000000" font-family="sans-serif" font-size="19.5" lengthAdjust="spacing" textLength="64.5" x="38.25" y="250.9219">prepare</text><polygon fill="#A80036" points="44.25,299.8381,29.25,305.8381,44.25,311.8381,38.25,305.8381" style="stroke:#A80036;stroke-width:1.5;"/><line style="stroke:#A80036;stroke-width:1.5;stroke-dasharray:2.0,2.0;" x1="35.25" x2="243" y1="305.8381" y2="305.8381"/><text fill="#000000" font-family="sans-serif" font-size="19.5" lengthAdjust="spacing" textLength="124.5" x="53.25" y="298.5535">prepare not ok</text><polygon fill="#A80036" points="170.25,347.4697,185.25,353.4697,170.25,359.4697,176.25,353.4697" style="stroke:#A80036;stroke-width:1.5;"/><line style="stroke:#A80036;stroke-width:1.5;" x1="27.75" x2="179.25" y1="353.4697" y2="353.4697"/><text fill="#000000" font-family="sans-serif" font-size="19.5" lengthAdjust="spacing" textLength="67.5" x="38.25" y="346.1851">rollback</text><polygon fill="#A80036" points="44.25,395.1013,29.25,401.1013,44.25,407.1013,38.25,401.1013" style="stroke:#A80036;stroke-width:1.5;"/><line style="stroke:#A80036;stroke-width:1.5;stroke-dasharray:2.0,2.0;" x1="35.25" x2="186.75" y1="401.1013" y2="401.1013"/><text fill="#000000" font-family="sans-serif" font-size="19.5" lengthAdjust="spacing" textLength="94.5" x="53.25" y="393.8167">rollback ok</text><polygon fill="#A80036" points="226.5,442.7329,241.5,448.7329,226.5,454.7329,232.5,448.7329" style="stroke:#A80036;stroke-width:1.5;"/><line style="stroke:#A80036;stroke-width:1.5;" x1="27.75" x2="235.5" y1="448.7329" y2="448.7329"/><text fill="#000000" font-family="sans-serif" font-size="19.5" lengthAdjust="spacing" textLength="67.5" x="38.25" y="441.4482">rollback</text><polygon fill="#A80036" points="44.25,490.3645,29.25,496.3645,44.25,502.3645,38.25,496.3645" style="stroke:#A80036;stroke-width:1.5;"/><line style="stroke:#A80036;stroke-width:1.5;stroke-dasharray:2.0,2.0;" x1="35.25" x2="243" y1="496.3645" y2="496.3645"/><text fill="#000000" font-family="sans-serif" font-size="19.5" lengthAdjust="spacing" textLength="127.5" x="53.25" y="489.0798">rollback not ok</text><polygon fill="#A80036" points="226.5,537.9961,241.5,543.9961,226.5,549.9961,232.5,543.9961" style="stroke:#A80036;stroke-width:1.5;"/><line style="stroke:#A80036;stroke-width:1.5;stroke-dasharray:2.0,2.0;" x1="27.75" x2="235.5" y1="543.9961" y2="543.9961"/><text fill="#000000" font-family="sans-serif" font-size="19.5" lengthAdjust="spacing" textLength="28.5" x="38.25" y="536.7114">kill!</text><polygon fill="#A80036" points="170.25,585.6277,185.25,591.6277,170.25,597.6277,176.25,591.6277" style="stroke:#A80036;stroke-width:1.5;"/><line style="stroke:#A80036;stroke-width:1.5;stroke-dasharray:2.0,2.0;" x1="27.75" x2="179.25" y1="591.6277" y2="591.6277"/><text fill="#000000" font-family="sans-serif" font-size="19.5" lengthAdjust="spacing" textLength="124.5" x="38.25" y="584.343">proposal failed</text><!--MD5=[425a8c708c2745bebd6f5f5f15137196]
@startuml

participant A
participant B
participant C

participant Central

B -> A: send proposal

A -> B: prepare
B - -> A: prepare ok

A -> C: prepare
C - -> A: prepare not ok

A -> B: rollback
B - -> A: rollback ok

A -> C: rollback
C - -> A: rollback not ok

A - -> C: kill!

A - -> B: proposal failed

@enduml

PlantUML version 1.2022.1(Wed Feb 02 02:19:58 SGT 2022)
(GPL source distribution)
Java Runtime: OpenJDK Runtime Environment
JVM: OpenJDK 64-Bit Server VM
Default Encoding: GBK
Language: en
Country: US
--></g></svg>