<?xml version="1.0" encoding="UTF-8" standalone="no"?><svg xmlns="http://www.w3.org/2000/svg" xmlns:xlink="http://www.w3.org/1999/xlink" contentScriptType="application/ecmascript" contentStyleType="text/css" height="639px" preserveAspectRatio="none" style="width:388px;height:639px;background:#FFFFFF;" version="1.1" viewBox="0 0 388 639" width="388.5px" zoomAndPan="magnify"><defs><filter height="300%" id="f1md9xnlgx2r3b" width="300%" x="-1" y="-1"><feGaussianBlur result="blurOut" stdDeviation="3.0"/><feColorMatrix in="blurOut" result="blurOut2" type="matrix" values="0 0 0 0 0 0 0 0 0 0 0 0 0 0 0 0 0 0 .4 0"/><feOffset dx="6.0" dy="6.0" in="blurOut2" result="blurOut3"/><feBlend in="SourceGraphic" in2="blurOut3" mode="normal"/></filter></defs><g><line style="stroke:#A80036;stroke-width:1.5;stroke-dasharray:5.0,5.0;" x1="27" x2="27" y1="64.6802" y2="570.9961"/><line style="stroke:#A80036;stroke-width:1.5;stroke-dasharray:5.0,5.0;" x1="184.5" x2="184.5" y1="64.6802" y2="570.9961"/><line style="stroke:#A80036;stroke-width:1.5;stroke-dasharray:5.0,5.0;" x1="241.5" x2="241.5" y1="64.6802" y2="570.9961"/><line style="stroke:#A80036;stroke-width:1.5;stroke-dasharray:5.0,5.0;" x1="325.5" x2="325.5" y1="64.6802" y2="570.9961"/><rect fill="#FEFECE" filter="url(#f1md9xnlgx2r3b)" height="49.6802" style="stroke:#A80036;stroke-width:2.25;" width="34.5" x="7.5" y="7.5"/><text fill="#000000" font-family="sans-serif" font-size="21" lengthAdjust="spacing" textLength="13.5" x="18" y="42.0659">A</text><rect fill="#FEFECE" filter="url(#f1md9xnlgx2r3b)" height="49.6802" style="stroke:#A80036;stroke-width:2.25;" width="34.5" x="7.5" y="569.4961"/><text fill="#000000" font-family="sans-serif" font-size="21" lengthAdjust="spacing" textLength="13.5" x="18" y="604.062">A</text><rect fill="#FEFECE" filter="url(#f1md9xnlgx2r3b)" height="49.6802" style="stroke:#A80036;stroke-width:2.25;" width="34.5" x="165" y="7.5"/><text fill="#000000" font-family="sans-serif" font-size="21" lengthAdjust="spacing" textLength="13.5" x="175.5" y="42.0659">B</text><rect fill="#FEFECE" filter="url(#f1md9xnlgx2r3b)" height="49.6802" style="stroke:#A80036;stroke-width:2.25;" width="34.5" x="165" y="569.4961"/><text fill="#000000" font-family="sans-serif" font-size="21" lengthAdjust="spacing" textLength="13.5" x="175.5" y="604.062">B</text><rect fill="#FEFECE" filter="url(#f1md9xnlgx2r3b)" height="49.6802" style="stroke:#A80036;stroke-width:2.25;" width="36" x="220.5" y="7.5"/><text fill="#000000" font-family="sans-serif" font-size="21" lengthAdjust="spacing" textLength="15" x="231" y="42.0659">C</text><rect fill="#FEFECE" filter="url(#f1md9xnlgx2r3b)" height="49.6802" style="stroke:#A80036;stroke-width:2.25;" width="36" x="220.5" y="569.4961"/><text fill="#000000" font-family="sans-serif" font-size="21" lengthAdjust="spacing" textLength="15" x="231" y="604.062">C</text><rect fill="#FEFECE" filter="url(#f1md9xnlgx2r3b)" height="49.6802" style="stroke:#A80036;stroke-width:2.25;" width="90" x="277.5" y="7.5"/><text fill="#000000" font-family="sans-serif" font-size="21" lengthAdjust="spacing" textLength="69" x="288" y="42.0659">Central</text><rect fill="#FEFECE" filter="url(#f1md9xnlgx2r3b)" height="49.6802" style="stroke:#A80036;stroke-width:2.25;" width="90" x="277.5" y="569.4961"/><text fill="#000000" font-family="sans-serif" font-size="21" lengthAdjust="spacing" textLength="69" x="288" y="604.062">Central</text><polygon fill="#A80036" points="44.25,109.3118,29.25,115.3118,44.25,121.3118,38.25,115.3118" style="stroke:#A80036;stroke-width:1.5;"/><line style="stroke:#A80036;stroke-width:1.5;" x1="35.25" x2="183.75" y1="115.3118" y2="115.3118"/><text fill="#000000" font-family="sans-serif" font-size="19.5" lengthAdjust="spacing" textLength="121.5" x="53.25" y="108.0271">send proposal</text><polygon fill="#A80036" points="167.25,156.9434,182.25,162.9434,167.25,168.9434,173.25,162.9434" style="stroke:#A80036;stroke-width:1.5;"/><line style="stroke:#A80036;stroke-width:1.5;" x1="27.75" x2="176.25" y1="162.9434" y2="162.9434"/><text fill="#000000" font-family="sans-serif" font-size="19.5" lengthAdjust="spacing" textLength="64.5" x="38.25" y="155.6587">prepare</text><polygon fill="#A80036" points="44.25,204.575,29.25,210.575,44.25,216.575,38.25,210.575" style="stroke:#A80036;stroke-width:1.5;"/><line style="stroke:#A80036;stroke-width:1.5;stroke-dasharray:2.0,2.0;" x1="35.25" x2="183.75" y1="210.575" y2="210.575"/><text fill="#000000" font-family="sans-serif" font-size="19.5" lengthAdjust="spacing" textLength="91.5" x="53.25" y="203.2903">prepare ok</text><polygon fill="#A80036" points="223.5,252.2065,238.5,258.2065,223.5,264.2065,229.5,258.2065" style="stroke:#A80036;stroke-width:1.5;"/><line style="stroke:#A80036;stroke-width:1.5;" x1="27.75" x2="232.5" y1="258.2065" y2="258.2065"/><text fill="#000000" font-family="sans-serif" font-size="19.5" lengthAdjust="spacing" textLength="64.5" x="38.25" y="250.9219">prepare</text><polygon fill="#A80036" points="44.25,299.8381,29.25,305.8381,44.25,311.8381,38.25,305.8381" style="stroke:#A80036;stroke-width:1.5;"/><line style="stroke:#A80036;stroke-width:1.5;stroke-dasharray:2.0,2.0;" x1="35.25" x2="240" y1="305.8381" y2="305.8381"/><text fill="#000000" font-family="sans-serif" font-size="19.5" lengthAdjust="spacing" textLength="91.5" x="53.25" y="298.5535">prepare ok</text><polygon fill="#A80036" points="167.25,347.4697,182.25,353.4697,167.25,359.4697,173.25,353.4697" style="stroke:#A80036;stroke-width:1.5;"/><line style="stroke:#A80036;stroke-width:1.5;" x1="27.75" x2="176.25" y1="353.4697" y2="353.4697"/><text fill="#000000" font-family="sans-serif" font-size="19.5" lengthAdjust="spacing" textLength="58.5" x="38.25" y="346.1851">submit</text><polygon fill="#A80036" points="44.25,395.1013,29.25,401.1013,44.25,407.1013,38.25,401.1013" style="stroke:#A80036;stroke-width:1.5;"/><line style="stroke:#A80036;stroke-width:1.5;stroke-dasharray:2.0,2.0;" x1="35.25" x2="183.75" y1="401.1013" y2="401.1013"/><text fill="#000000" font-family="sans-serif" font-size="19.5" lengthAdjust="spacing" textLength="85.5" x="53.25" y="393.8167">submit ok</text><polygon fill="#A80036" points="223.5,442.7329,238.5,448.7329,223.5,454.7329,229.5,448.7329" style="stroke:#A80036;stroke-width:1.5;"/><line style="stroke:#A80036;stroke-width:1.5;" x1="27.75" x2="232.5" y1="448.7329" y2="448.7329"/><text fill="#000000" font-family="sans-serif" font-size="19.5" lengthAdjust="spacing" textLength="58.5" x="38.25" y="441.4482">submit</text><polygon fill="#A80036" points="44.25,490.3645,29.25,496.3645,44.25,502.3645,38.25,496.3645" style="stroke:#A80036;stroke-width:1.5;"/><line style="stroke:#A80036;stroke-width:1.5;stroke-dasharray:2.0,2.0;" x1="35.25" x2="240" y1="496.3645" y2="496.3645"/><text fill="#000000" font-family="sans-serif" font-size="19.5" lengthAdjust="spacing" textLength="85.5" x="53.25" y="489.0798">submit ok</text><polygon fill="#A80036" points="167.25,537.9961,182.25,543.9961,167.25,549.9961,173.25,543.9961" style="stroke:#A80036;stroke-width:1.5;"/><line style="stroke:#A80036;stroke-width:1.5;stroke-dasharray:2.0,2.0;" x1="27.75" x2="176.25" y1="543.9961" y2="543.9961"/><text fill="#000000" font-family="sans-serif" font-size="19.5" lengthAdjust="spacing" textLength="100.5" x="38.25" y="536.7114">proposal ok</text><!--MD5=[710ad2f670ae138f8ab5b07e17eef6d5]
@startuml

participant A
participant B
participant C

participant Central

B -> A: send proposal

A -> B: prepare
B - -> A: prepare ok

A -> C: prepare
C - -> A: prepare ok

A -> B: submit
B - -> A: submit ok

A -> C: submit
C - -> A: submit ok

A - -> B: proposal ok

@enduml

PlantUML version 1.2022.1(Wed Feb 02 02:19:58 SGT 2022)
(GPL source distribution)
Java Runtime: OpenJDK Runtime Environment
JVM: OpenJDK 64-Bit Server VM
Default Encoding: GBK
Language: en
Country: US
--></g></svg>