<?xml version="1.0" encoding="UTF-8" standalone="no"?><svg xmlns="http://www.w3.org/2000/svg" xmlns:xlink="http://www.w3.org/1999/xlink" contentScriptType="application/ecmascript" contentStyleType="text/css" height="1374px" preserveAspectRatio="none" style="width:634px;height:1374px;background:#FFFFFF;" version="1.1" viewBox="0 0 634 1374" width="634.5px" zoomAndPan="magnify"><defs><filter height="300%" id="f16hrrizds5g0s" width="300%" x="-1" y="-1"><feGaussianBlur result="blurOut" stdDeviation="3.0"/><feColorMatrix in="blurOut" result="blurOut2" type="matrix" values="0 0 0 0 0 0 0 0 0 0 0 0 0 0 0 0 0 0 .4 0"/><feOffset dx="6.0" dy="6.0" in="blurOut2" result="blurOut3"/><feBlend in="SourceGraphic" in2="blurOut3" mode="normal"/></filter></defs><g><rect fill="#FFFFFF" filter="url(#f16hrrizds5g0s)" height="287.2896" style="stroke:#000000;stroke-width:3.0;" width="599.25" x="15" y="90.1802"/><rect fill="#FFFFFF" filter="url(#f16hrrizds5g0s)" height="382.5527" style="stroke:#000000;stroke-width:3.0;" width="599.25" x="15" y="398.4697"/><rect fill="#FFFFFF" filter="url(#f16hrrizds5g0s)" height="477.8159" style="stroke:#000000;stroke-width:3.0;" width="599.25" x="15" y="802.0225"/><line style="stroke:#A80036;stroke-width:1.5;stroke-dasharray:5.0,5.0;" x1="49.5" x2="49.5" y1="64.6802" y2="1305.3384"/><line style="stroke:#A80036;stroke-width:1.5;stroke-dasharray:5.0,5.0;" x1="229.5" x2="229.5" y1="64.6802" y2="1305.3384"/><line style="stroke:#A80036;stroke-width:1.5;stroke-dasharray:5.0,5.0;" x1="410.25" x2="410.25" y1="64.6802" y2="1305.3384"/><line style="stroke:#A80036;stroke-width:1.5;stroke-dasharray:5.0,5.0;" x1="551.25" x2="551.25" y1="64.6802" y2="1305.3384"/><rect fill="#FEFECE" filter="url(#f16hrrizds5g0s)" height="49.6802" style="stroke:#A80036;stroke-width:2.25;" width="34.5" x="30" y="7.5"/><text fill="#000000" font-family="sans-serif" font-size="21" lengthAdjust="spacing" textLength="13.5" x="40.5" y="42.0659">A</text><rect fill="#FEFECE" filter="url(#f16hrrizds5g0s)" height="49.6802" style="stroke:#A80036;stroke-width:2.25;" width="34.5" x="30" y="1303.8384"/><text fill="#000000" font-family="sans-serif" font-size="21" lengthAdjust="spacing" textLength="13.5" x="40.5" y="1338.4043">A</text><rect fill="#FEFECE" filter="url(#f16hrrizds5g0s)" height="49.6802" style="stroke:#A80036;stroke-width:2.25;" width="34.5" x="210" y="7.5"/><text fill="#000000" font-family="sans-serif" font-size="21" lengthAdjust="spacing" textLength="13.5" x="220.5" y="42.0659">B</text><rect fill="#FEFECE" filter="url(#f16hrrizds5g0s)" height="49.6802" style="stroke:#A80036;stroke-width:2.25;" width="34.5" x="210" y="1303.8384"/><text fill="#000000" font-family="sans-serif" font-size="21" lengthAdjust="spacing" textLength="13.5" x="220.5" y="1338.4043">B</text><rect fill="#FEFECE" filter="url(#f16hrrizds5g0s)" height="49.6802" style="stroke:#A80036;stroke-width:2.25;" width="36" x="389.25" y="7.5"/><text fill="#000000" font-family="sans-serif" font-size="21" lengthAdjust="spacing" textLength="15" x="399.75" y="42.0659">C</text><rect fill="#FEFECE" filter="url(#f16hrrizds5g0s)" height="49.6802" style="stroke:#A80036;stroke-width:2.25;" width="36" x="389.25" y="1303.8384"/><text fill="#000000" font-family="sans-serif" font-size="21" lengthAdjust="spacing" textLength="15" x="399.75" y="1338.4043">C</text><rect fill="#FEFECE" filter="url(#f16hrrizds5g0s)" height="49.6802" style="stroke:#A80036;stroke-width:2.25;" width="90" x="503.25" y="7.5"/><text fill="#000000" font-family="sans-serif" font-size="21" lengthAdjust="spacing" textLength="69" x="513.75" y="42.0659">Central</text><rect fill="#FEFECE" filter="url(#f16hrrizds5g0s)" height="49.6802" style="stroke:#A80036;stroke-width:2.25;" width="90" x="503.25" y="1303.8384"/><text fill="#000000" font-family="sans-serif" font-size="21" lengthAdjust="spacing" textLength="69" x="513.75" y="1338.4043">Central</text><path d="M15,90.1802 L96,90.1802 L96,103.6802 L81,118.6802 L15,118.6802 L15,90.1802 " fill="#EEEEEE" style="stroke:#000000;stroke-width:1.5;"/><rect fill="none" height="287.2896" style="stroke:#000000;stroke-width:3.0;" width="599.25" x="15" y="90.1802"/><text fill="#000000" font-family="sans-serif" font-size="19.5" font-weight="bold" lengthAdjust="spacing" textLength="13.5" x="37.5" y="114.0271">A</text><polygon fill="#A80036" points="533.25,149.4434,548.25,155.4434,533.25,161.4434,539.25,155.4434" style="stroke:#A80036;stroke-width:1.5;"/><line style="stroke:#A80036;stroke-width:1.5;" x1="50.25" x2="542.25" y1="155.4434" y2="155.4434"/><text fill="#000000" font-family="sans-serif" font-size="19.5" lengthAdjust="spacing" textLength="64.5" x="60.75" y="148.1587">register</text><polygon fill="#A80036" points="66.75,197.075,51.75,203.075,66.75,209.075,60.75,203.075" style="stroke:#A80036;stroke-width:1.5;"/><line style="stroke:#A80036;stroke-width:1.5;stroke-dasharray:2.0,2.0;" x1="57.75" x2="549.75" y1="203.075" y2="203.075"/><text fill="#000000" font-family="sans-serif" font-size="19.5" lengthAdjust="spacing" textLength="28.5" x="75.75" y="195.7903">OK</text><polygon fill="#A80036" points="533.25,244.7065,548.25,250.7065,533.25,256.7065,539.25,250.7065" style="stroke:#A80036;stroke-width:1.5;"/><line style="stroke:#A80036;stroke-width:1.5;" x1="50.25" x2="542.25" y1="250.7065" y2="250.7065"/><text fill="#000000" font-family="sans-serif" font-size="19.5" lengthAdjust="spacing" textLength="105" x="60.75" y="243.4219">Get all node</text><polygon fill="#A80036" points="66.75,292.3381,51.75,298.3381,66.75,304.3381,60.75,298.3381" style="stroke:#A80036;stroke-width:1.5;"/><line style="stroke:#A80036;stroke-width:1.5;stroke-dasharray:2.0,2.0;" x1="57.75" x2="549.75" y1="298.3381" y2="298.3381"/><text fill="#000000" font-family="sans-serif" font-size="19.5" lengthAdjust="spacing" textLength="48" x="75.75" y="291.0535">result</text><line style="stroke:#A80036;stroke-width:1.5;" x1="50.25" x2="113.25" y1="345.9697" y2="345.9697"/><line style="stroke:#A80036;stroke-width:1.5;" x1="113.25" x2="113.25" y1="345.9697" y2="365.4697"/><line style="stroke:#A80036;stroke-width:1.5;" x1="51.75" x2="113.25" y1="365.4697" y2="365.4697"/><polygon fill="#A80036" points="66.75,359.4697,51.75,365.4697,66.75,371.4697,60.75,365.4697" style="stroke:#A80036;stroke-width:1.5;"/><text fill="#000000" font-family="sans-serif" font-size="19.5" lengthAdjust="spacing" textLength="42" x="60.75" y="338.6851">elect</text><path d="M15,398.4697 L96,398.4697 L96,411.9697 L81,426.9697 L15,426.9697 L15,398.4697 " fill="#EEEEEE" style="stroke:#000000;stroke-width:1.5;"/><rect fill="none" height="382.5527" style="stroke:#000000;stroke-width:3.0;" width="599.25" x="15" y="398.4697"/><text fill="#000000" font-family="sans-serif" font-size="19.5" font-weight="bold" lengthAdjust="spacing" textLength="13.5" x="37.5" y="422.3167">B</text><polygon fill="#A80036" points="533.25,457.7329,548.25,463.7329,533.25,469.7329,539.25,463.7329" style="stroke:#A80036;stroke-width:1.5;"/><line style="stroke:#A80036;stroke-width:1.5;" x1="230.25" x2="542.25" y1="463.7329" y2="463.7329"/><text fill="#000000" font-family="sans-serif" font-size="19.5" lengthAdjust="spacing" textLength="64.5" x="240.75" y="456.4482">register</text><polygon fill="#A80036" points="246.75,505.3645,231.75,511.3645,246.75,517.3645,240.75,511.3645" style="stroke:#A80036;stroke-width:1.5;"/><line style="stroke:#A80036;stroke-width:1.5;stroke-dasharray:2.0,2.0;" x1="237.75" x2="549.75" y1="511.3645" y2="511.3645"/><text fill="#000000" font-family="sans-serif" font-size="19.5" lengthAdjust="spacing" textLength="28.5" x="255.75" y="504.0798">OK</text><polygon fill="#A80036" points="533.25,552.9961,548.25,558.9961,533.25,564.9961,539.25,558.9961" style="stroke:#A80036;stroke-width:1.5;"/><line style="stroke:#A80036;stroke-width:1.5;" x1="230.25" x2="542.25" y1="558.9961" y2="558.9961"/><text fill="#000000" font-family="sans-serif" font-size="19.5" lengthAdjust="spacing" textLength="105" x="240.75" y="551.7114">Get all node</text><polygon fill="#A80036" points="246.75,600.6277,231.75,606.6277,246.75,612.6277,240.75,606.6277" style="stroke:#A80036;stroke-width:1.5;"/><line style="stroke:#A80036;stroke-width:1.5;stroke-dasharray:2.0,2.0;" x1="237.75" x2="549.75" y1="606.6277" y2="606.6277"/><text fill="#000000" font-family="sans-serif" font-size="19.5" lengthAdjust="spacing" textLength="48" x="255.75" y="599.343">result</text><polygon fill="#A80036" points="66.75,648.2593,51.75,654.2593,66.75,660.2593,60.75,654.2593" style="stroke:#A80036;stroke-width:1.5;"/><line style="stroke:#A80036;stroke-width:1.5;" x1="57.75" x2="228.75" y1="654.2593" y2="654.2593"/><text fill="#000000" font-family="sans-serif" font-size="19.5" lengthAdjust="spacing" textLength="144" x="75.75" y="646.9746">get election data</text><polygon fill="#A80036" points="212.25,695.8909,227.25,701.8909,212.25,707.8909,218.25,701.8909" style="stroke:#A80036;stroke-width:1.5;"/><line style="stroke:#A80036;stroke-width:1.5;stroke-dasharray:2.0,2.0;" x1="50.25" x2="221.25" y1="701.8909" y2="701.8909"/><text fill="#000000" font-family="sans-serif" font-size="19.5" lengthAdjust="spacing" textLength="48" x="60.75" y="694.6062">result</text><line style="stroke:#A80036;stroke-width:1.5;" x1="230.25" x2="293.25" y1="749.5225" y2="749.5225"/><line style="stroke:#A80036;stroke-width:1.5;" x1="293.25" x2="293.25" y1="749.5225" y2="769.0225"/><line style="stroke:#A80036;stroke-width:1.5;" x1="231.75" x2="293.25" y1="769.0225" y2="769.0225"/><polygon fill="#A80036" points="246.75,763.0225,231.75,769.0225,246.75,775.0225,240.75,769.0225" style="stroke:#A80036;stroke-width:1.5;"/><text fill="#000000" font-family="sans-serif" font-size="19.5" lengthAdjust="spacing" textLength="42" x="240.75" y="742.2378">elect</text><path d="M15,802.0225 L96,802.0225 L96,815.5225 L81,830.5225 L15,830.5225 L15,802.0225 " fill="#EEEEEE" style="stroke:#000000;stroke-width:1.5;"/><rect fill="none" height="477.8159" style="stroke:#000000;stroke-width:3.0;" width="599.25" x="15" y="802.0225"/><text fill="#000000" font-family="sans-serif" font-size="19.5" font-weight="bold" lengthAdjust="spacing" textLength="13.5" x="37.5" y="825.8694">C</text><polygon fill="#A80036" points="533.25,861.2856,548.25,867.2856,533.25,873.2856,539.25,867.2856" style="stroke:#A80036;stroke-width:1.5;"/><line style="stroke:#A80036;stroke-width:1.5;" x1="410.25" x2="542.25" y1="867.2856" y2="867.2856"/><text fill="#000000" font-family="sans-serif" font-size="19.5" lengthAdjust="spacing" textLength="64.5" x="420.75" y="860.001">register</text><polygon fill="#A80036" points="426.75,908.9172,411.75,914.9172,426.75,920.9172,420.75,914.9172" style="stroke:#A80036;stroke-width:1.5;"/><line style="stroke:#A80036;stroke-width:1.5;stroke-dasharray:2.0,2.0;" x1="417.75" x2="549.75" y1="914.9172" y2="914.9172"/><text fill="#000000" font-family="sans-serif" font-size="19.5" lengthAdjust="spacing" textLength="28.5" x="435.75" y="907.6326">OK</text><polygon fill="#A80036" points="533.25,956.5488,548.25,962.5488,533.25,968.5488,539.25,962.5488" style="stroke:#A80036;stroke-width:1.5;"/><line style="stroke:#A80036;stroke-width:1.5;" x1="410.25" x2="542.25" y1="962.5488" y2="962.5488"/><text fill="#000000" font-family="sans-serif" font-size="19.5" lengthAdjust="spacing" textLength="105" x="420.75" y="955.2642">Get all node</text><polygon fill="#A80036" points="426.75,1004.1804,411.75,1010.1804,426.75,1016.1804,420.75,1010.1804" style="stroke:#A80036;stroke-width:1.5;"/><line style="stroke:#A80036;stroke-width:1.5;stroke-dasharray:2.0,2.0;" x1="417.75" x2="549.75" y1="1010.1804" y2="1010.1804"/><text fill="#000000" font-family="sans-serif" font-size="19.5" lengthAdjust="spacing" textLength="48" x="435.75" y="1002.8958">result</text><polygon fill="#A80036" points="66.75,1051.812,51.75,1057.812,66.75,1063.812,60.75,1057.812" style="stroke:#A80036;stroke-width:1.5;"/><line style="stroke:#A80036;stroke-width:1.5;" x1="57.75" x2="408.75" y1="1057.812" y2="1057.812"/><text fill="#000000" font-family="sans-serif" font-size="19.5" lengthAdjust="spacing" textLength="144" x="75.75" y="1050.5273">get election data</text><polygon fill="#A80036" points="392.25,1099.4436,407.25,1105.4436,392.25,1111.4436,398.25,1105.4436" style="stroke:#A80036;stroke-width:1.5;"/><line style="stroke:#A80036;stroke-width:1.5;stroke-dasharray:2.0,2.0;" x1="50.25" x2="401.25" y1="1105.4436" y2="1105.4436"/><text fill="#000000" font-family="sans-serif" font-size="19.5" lengthAdjust="spacing" textLength="48" x="60.75" y="1098.1589">result</text><polygon fill="#A80036" points="246.75,1147.0752,231.75,1153.0752,246.75,1159.0752,240.75,1153.0752" style="stroke:#A80036;stroke-width:1.5;"/><line style="stroke:#A80036;stroke-width:1.5;" x1="237.75" x2="408.75" y1="1153.0752" y2="1153.0752"/><text fill="#000000" font-family="sans-serif" font-size="19.5" lengthAdjust="spacing" textLength="144" x="255.75" y="1145.7905">get election data</text><polygon fill="#A80036" points="392.25,1194.7068,407.25,1200.7068,392.25,1206.7068,398.25,1200.7068" style="stroke:#A80036;stroke-width:1.5;"/><line style="stroke:#A80036;stroke-width:1.5;stroke-dasharray:2.0,2.0;" x1="230.25" x2="401.25" y1="1200.7068" y2="1200.7068"/><text fill="#000000" font-family="sans-serif" font-size="19.5" lengthAdjust="spacing" textLength="48" x="240.75" y="1193.4221">result</text><line style="stroke:#A80036;stroke-width:1.5;" x1="410.25" x2="473.25" y1="1248.3384" y2="1248.3384"/><line style="stroke:#A80036;stroke-width:1.5;" x1="473.25" x2="473.25" y1="1248.3384" y2="1267.8384"/><line style="stroke:#A80036;stroke-width:1.5;" x1="411.75" x2="473.25" y1="1267.8384" y2="1267.8384"/><polygon fill="#A80036" points="426.75,1261.8384,411.75,1267.8384,426.75,1273.8384,420.75,1267.8384" style="stroke:#A80036;stroke-width:1.5;"/><text fill="#000000" font-family="sans-serif" font-size="19.5" lengthAdjust="spacing" textLength="42" x="420.75" y="1241.0537">elect</text><!--MD5=[1301e7ac6aace720aa7affc84ffa8616]
@startuml

participant A
participant B
participant C

participant Central

group A

A -> Central: register
Central - -> A: OK

A -> Central: Get all node
Central - -> A: result

A -> A: elect

end

group B

B -> Central: register
Central - -> B: OK

B -> Central: Get all node
Central - -> B: result

B -> A: get election data
A - -> B: result

B -> B: elect

end

group C

C -> Central: register
Central - -> C: OK

C -> Central: Get all node
Central - -> C: result

C -> A: get election data
A - -> C: result
C -> B: get election data
B - -> C: result

C -> C: elect

end

@enduml

PlantUML version 1.2022.1(Wed Feb 02 02:19:58 SGT 2022)
(GPL source distribution)
Java Runtime: OpenJDK Runtime Environment
JVM: OpenJDK 64-Bit Server VM
Default Encoding: GBK
Language: en
Country: US
--></g></svg>